<svg width="202" height="56" viewBox="0 0 202 56" fill="none" xmlns="http://www.w3.org/2000/svg" role="img" aria-labelledby="title desc">
  <title id="title">Omiryn</title>
  <desc id="desc">Omiryn wordmark with a minimal premium monogram.</desc>
  <defs>
    <linearGradient id="markGradient" x1="8" y1="8" x2="48" y2="48" gradientUnits="userSpaceOnUse">
      <stop stop-color="#8FD7C9"/>
      <stop offset="0.46" stop-color="#2E7B73"/>
      <stop offset="1" stop-color="#D18368"/>
    </linearGradient>
  </defs>

  <g>
    <rect x="2" y="2" width="52" height="52" rx="16" fill="#101416"/>
    <path d="M28 11C37.39 11 45 18.61 45 28C45 37.39 37.39 45 28 45C18.61 45 11 37.39 11 28C11 18.61 18.61 11 28 11ZM28 18.1C22.53 18.1 18.1 22.53 18.1 28C18.1 33.47 22.53 37.9 28 37.9C33.47 37.9 37.9 33.47 37.9 28C37.9 22.53 33.47 18.1 28 18.1Z" fill="url(#markGradient)"/>
    <path d="M31.5 18.82C35.27 20.25 37.9 23.83 37.9 28C37.9 33.47 33.47 37.9 28 37.9C24.06 37.9 20.66 35.6 19.07 32.27" stroke="#FFF8E8" stroke-width="2.25" stroke-linecap="round"/>
    <circle cx="38.8" cy="17.2" r="3.4" fill="#E9C575"/>
  </g>

  <g fill="#FFF8E8">
    <path d="M73.2 40.6C65.5 40.6 60 35.1 60 28C60 20.9 65.5 15.4 73.2 15.4C80.9 15.4 86.4 20.9 86.4 28C86.4 35.1 80.9 40.6 73.2 40.6ZM73.2 35.1C77.4 35.1 80.5 32.1 80.5 28C80.5 23.9 77.4 20.9 73.2 20.9C69 20.9 65.9 23.9 65.9 28C65.9 32.1 69 35.1 73.2 35.1Z"/>
    <path d="M91.4 40V22.2H96.7V24.2C97.8 22.7 99.5 21.8 101.6 21.8C104 21.8 105.8 22.9 106.7 24.8C108 22.9 109.9 21.8 112.5 21.8C116.5 21.8 119 24.5 119 28.9V40H113.7V29.8C113.7 27.6 112.7 26.3 110.9 26.3C108.9 26.3 107.8 27.8 107.8 30.1V40H102.5V29.8C102.5 27.6 101.5 26.3 99.7 26.3C97.8 26.3 96.7 27.8 96.7 30.1V40H91.4Z"/>
    <path d="M124 19.3C122.3 19.3 121.1 18.2 121.1 16.7C121.1 15.2 122.3 14.1 124 14.1C125.7 14.1 126.9 15.2 126.9 16.7C126.9 18.2 125.7 19.3 124 19.3ZM121.3 40V22.2H126.7V40H121.3Z"/>
    <path d="M130.3 40V22.2H135.6V25.1C136.5 23.2 138.3 22 140.8 22H141.8V27.1H140C137.1 27.1 135.7 28.7 135.7 31.7V40H130.3Z"/>
    <path d="M146.4 47.1C145 47.1 143.7 46.9 142.7 46.4V41.9C143.5 42.4 144.4 42.6 145.4 42.6C147 42.6 147.8 42 148.5 40.4L148.7 39.9L141.1 22.2H146.8L151.4 34.1L155.9 22.2H161.4L153 42.3C151.6 45.6 149.5 47.1 146.4 47.1Z"/>
    <path d="M163.7 40V22.2H169V24.5C170.2 22.8 172.2 21.8 174.7 21.8C178.9 21.8 181.6 24.7 181.6 29.2V40H176.2V30C176.2 27.6 175 26.2 172.9 26.2C170.6 26.2 169 27.9 169 30.3V40H163.7Z"/>
  </g>
</svg>
