<svg width="198" height="56" viewBox="0 0 198 56" fill="none" xmlns="http://www.w3.org/2000/svg" role="img" aria-labelledby="title desc">
  <title id="title">Omiryn</title>
  <desc id="desc">Omiryn wordmark with a simple signet O.</desc>
  <defs>
    <linearGradient id="signet" x1="10" y1="10" x2="46" y2="46" gradientUnits="userSpaceOnUse">
      <stop stop-color="#8FD7C9"/>
      <stop offset="1" stop-color="#D18368"/>
    </linearGradient>
  </defs>
  <g>
    <circle cx="28" cy="28" r="19" stroke="url(#signet)" stroke-width="6"/>
    <circle cx="28" cy="28" r="8.5" stroke="#FFF8E8" stroke-width="3"/>
  </g>
  <g fill="#FFF8E8">
    <path d="M72.8 40.5C65.1 40.5 59.6 35 59.6 28C59.6 21 65.1 15.5 72.8 15.5C80.5 15.5 86 21 86 28C86 35 80.5 40.5 72.8 40.5ZM72.8 35.3C77.1 35.3 80.2 32.1 80.2 28C80.2 23.9 77.1 20.7 72.8 20.7C68.5 20.7 65.4 23.9 65.4 28C65.4 32.1 68.5 35.3 72.8 35.3Z"/>
    <path d="M91.2 40V22.3H96.4V24.3C97.5 22.8 99.2 21.9 101.3 21.9C103.7 21.9 105.5 23 106.4 24.8C107.7 23 109.7 21.9 112.2 21.9C116.2 21.9 118.7 24.5 118.7 28.9V40H113.5V29.8C113.5 27.6 112.5 26.3 110.7 26.3C108.7 26.3 107.6 27.8 107.6 30.1V40H102.4V29.8C102.4 27.6 101.4 26.3 99.6 26.3C97.6 26.3 96.5 27.8 96.5 30.1V40H91.2Z"/>
    <path d="M123.6 19.3C122 19.3 120.8 18.2 120.8 16.7C120.8 15.2 122 14.1 123.6 14.1C125.3 14.1 126.5 15.2 126.5 16.7C126.5 18.2 125.3 19.3 123.6 19.3ZM121 40V22.3H126.3V40H121Z"/>
    <path d="M129.9 40V22.3H135.1V25.1C136.1 23.2 137.9 22 140.3 22H141.3V27H139.6C136.7 27 135.2 28.6 135.2 31.6V40H129.9Z"/>
    <path d="M145.9 47.1C144.5 47.1 143.3 46.9 142.2 46.4V42C143 42.4 144 42.6 144.9 42.6C146.6 42.6 147.4 42 148.1 40.4L148.3 39.9L140.7 22.3H146.3L150.9 34.1L155.4 22.3H160.8L152.5 42.2C151 45.6 149 47.1 145.9 47.1Z"/>
    <path d="M163 40V22.3H168.2V24.5C169.5 22.8 171.4 21.9 173.9 21.9C178.1 21.9 180.8 24.7 180.8 29.2V40H175.5V30C175.5 27.6 174.3 26.2 172.1 26.2C169.8 26.2 168.3 27.8 168.3 30.3V40H163Z"/>
  </g>
</svg>
