<svg width="188" height="48" viewBox="0 0 188 48" fill="none" xmlns="http://www.w3.org/2000/svg" role="img" aria-labelledby="title desc">
  <title id="title">Omiryn</title>
  <desc id="desc">A clean Omiryn wordmark.</desc>
  <g fill="#FFF8E8">
    <path d="M18.9 38.4C10.9 38.4 5.2 32.8 5.2 24C5.2 15.2 10.9 9.6 18.9 9.6C26.9 9.6 32.6 15.2 32.6 24C32.6 32.8 26.9 38.4 18.9 38.4ZM18.9 32.2C23.1 32.2 26 28.9 26 24C26 19.1 23.1 15.8 18.9 15.8C14.7 15.8 11.8 19.1 11.8 24C11.8 28.9 14.7 32.2 18.9 32.2Z"/>
    <path d="M37.2 38V17.6H43.2V19.7C44.5 18 46.4 17.1 48.8 17.1C51.5 17.1 53.5 18.3 54.5 20.5C56 18.4 58.2 17.1 61 17.1C65.5 17.1 68.3 20.1 68.3 25.1V38H62.2V26.2C62.2 23.8 61.1 22.3 59 22.3C56.7 22.3 55.4 24 55.4 26.6V38H49.3V26.2C49.3 23.8 48.2 22.3 46.1 22.3C43.8 22.3 43.3 24 43.3 26.6V38H37.2Z"/>
    <path d="M75.1 14.3C73.2 14.3 71.9 13.1 71.9 11.4C71.9 9.7 73.2 8.5 75.1 8.5C77 8.5 78.3 9.7 78.3 11.4C78.3 13.1 77 14.3 75.1 14.3ZM72.1 38V17.6H78.2V38H72.1Z"/>
    <path d="M82.2 38V17.6H88.2V20.7C89.3 18.5 91.4 17.3 94.1 17.3H95.2V23.1H93.2C89.9 23.1 88.3 24.9 88.3 28.3V38H82.2Z"/>
    <path d="M101.3 46C99.7 46 98.3 45.7 97.1 45.2V40.1C98 40.6 99 40.8 100.1 40.8C102 40.8 102.9 40.1 103.7 38.3L103.9 37.7L95.2 17.6H101.6L106.9 31.2L112.1 17.6H118.3L108.7 40.6C107.1 44.3 104.8 46 101.3 46Z"/>
    <path d="M120.9 38V17.6H126.9V20.2C128.3 18.2 130.5 17.1 133.3 17.1C138.1 17.1 141.2 20.4 141.2 25.5V38H135.1V26.4C135.1 23.8 133.7 22.2 131.2 22.2C128.7 22.2 127 24 127 26.8V38H120.9Z"/>
  </g>
</svg>
